solid ascii
  facet normal -0.000000e+00 -1.000000e+00 -0.000000e+00
    outer loop
      vertex   0.000000e+00 1.144076e+01 1.350000e+01
      vertex   -2.000000e+01 1.144076e+01 1.350000e+01
      vertex   0.000000e+00 1.144076e+01 1.500000e+00
    endloop
  endfacet
  facet normal 0.000000e+00 -1.000000e+00 0.000000e+00
    outer loop
      vertex   0.000000e+00 1.144076e+01 1.500000e+00
      vertex   -2.000000e+01 1.144076e+01 1.350000e+01
      vertex   -2.000000e+01 1.144076e+01 1.500000e+00
    endloop
  endfacet
  facet normal 1.000000e+00 -0.000000e+00 0.000000e+00
    outer loop
      vertex   -2.000000e+01 9.440763e+00 1.350000e+01
      vertex   -2.000000e+01 9.440763e+00 1.500000e+00
      vertex   -2.000000e+01 1.144076e+01 1.350000e+01
    endloop
  endfacet
  facet normal 1.000000e+00 0.000000e+00 0.000000e+00
    outer loop
      vertex   -2.000000e+01 1.144076e+01 1.350000e+01
      vertex   -2.000000e+01 9.440763e+00 1.500000e+00
      vertex   -2.000000e+01 1.144076e+01 1.500000e+00
    endloop
  endfacet
  facet normal -0.000000e+00 1.000000e+00 0.000000e+00
    outer loop
      vertex   -2.000000e+01 9.440763e+00 1.350000e+01
      vertex   0.000000e+00 9.440763e+00 1.350000e+01
      vertex   -2.000000e+01 9.440763e+00 1.500000e+00
    endloop
  endfacet
  facet normal 0.000000e+00 1.000000e+00 0.000000e+00
    outer loop
      vertex   -2.000000e+01 9.440763e+00 1.500000e+00
      vertex   0.000000e+00 9.440763e+00 1.350000e+01
      vertex   0.000000e+00 9.440763e+00 1.500000e+00
    endloop
  endfacet
  facet normal 0.000000e+00 0.000000e+00 -1.000000e+00
    outer loop
      vertex   0.000000e+00 1.144076e+01 1.500000e+00
      vertex   -2.000000e+01 1.144076e+01 1.500000e+00
      vertex   0.000000e+00 1.794076e+01 1.500000e+00
    endloop
  endfacet
  facet normal -0.000000e+00 0.000000e+00 -1.000000e+00
    outer loop
      vertex   0.000000e+00 1.794076e+01 1.500000e+00
      vertex   -2.000000e+01 1.144076e+01 1.500000e+00
      vertex   -5.000000e+01 1.794076e+01 1.500000e+00
    endloop
  endfacet
  facet normal 0.000000e+00 0.000000e+00 -1.000000e+00
    outer loop
      vertex   -5.000000e+01 1.794076e+01 1.500000e+00
      vertex   -2.000000e+01 1.144076e+01 1.500000e+00
      vertex   -5.000000e+01 2.940764e+00 1.500000e+00
    endloop
  endfacet
  facet normal 0.000000e+00 0.000000e+00 -1.000000e+00
    outer loop
      vertex   -5.000000e+01 2.940764e+00 1.500000e+00
      vertex   -2.000000e+01 1.144076e+01 1.500000e+00
      vertex   -2.000000e+01 9.440763e+00 1.500000e+00
    endloop
  endfacet
  facet normal 0.000000e+00 0.000000e+00 -1.000000e+00
    outer loop
      vertex   -5.000000e+01 2.940764e+00 1.500000e+00
      vertex   -2.000000e+01 9.440763e+00 1.500000e+00
      vertex   0.000000e+00 2.940764e+00 1.500000e+00
    endloop
  endfacet
  facet normal 0.000000e+00 0.000000e+00 -1.000000e+00
    outer loop
      vertex   0.000000e+00 2.940764e+00 1.500000e+00
      vertex   -2.000000e+01 9.440763e+00 1.500000e+00
      vertex   0.000000e+00 9.440763e+00 1.500000e+00
    endloop
  endfacet
  facet normal 1.000000e+00 0.000000e+00 -0.000000e+00
    outer loop
      vertex   0.000000e+00 9.440763e+00 1.500000e+00
      vertex   0.000000e+00 9.440763e+00 1.350000e+01
      vertex   0.000000e+00 2.940764e+00 1.500000e+00
    endloop
  endfacet
  facet normal 1.000000e+00 0.000000e+00 0.000000e+00
    outer loop
      vertex   0.000000e+00 2.940764e+00 1.500000e+00
      vertex   0.000000e+00 9.440763e+00 1.350000e+01
      vertex   0.000000e+00 2.940764e+00 1.350000e+01
    endloop
  endfacet
  facet normal 1.000000e+00 -0.000000e+00 0.000000e+00
    outer loop
      vertex   0.000000e+00 1.144076e+01 1.350000e+01
      vertex   0.000000e+00 1.144076e+01 1.500000e+00
      vertex   0.000000e+00 1.794076e+01 1.350000e+01
    endloop
  endfacet
  facet normal 1.000000e+00 0.000000e+00 0.000000e+00
    outer loop
      vertex   0.000000e+00 1.794076e+01 1.350000e+01
      vertex   0.000000e+00 1.144076e+01 1.500000e+00
      vertex   0.000000e+00 1.794076e+01 1.500000e+00
    endloop
  endfacet
  facet normal 0.000000e+00 -0.000000e+00 1.000000e+00
    outer loop
      vertex   0.000000e+00 1.144076e+01 1.350000e+01
      vertex   0.000000e+00 1.794076e+01 1.350000e+01
      vertex   -2.000000e+01 1.144076e+01 1.350000e+01
    endloop
  endfacet
  facet normal 0.000000e+00 -0.000000e+00 1.000000e+00
    outer loop
      vertex   -2.000000e+01 1.144076e+01 1.350000e+01
      vertex   0.000000e+00 1.794076e+01 1.350000e+01
      vertex   -5.000000e+01 1.794076e+01 1.350000e+01
    endloop
  endfacet
  facet normal 0.000000e+00 0.000000e+00 1.000000e+00
    outer loop
      vertex   -2.000000e+01 1.144076e+01 1.350000e+01
      vertex   -5.000000e+01 1.794076e+01 1.350000e+01
      vertex   -5.000000e+01 2.940764e+00 1.350000e+01
    endloop
  endfacet
  facet normal 0.000000e+00 0.000000e+00 1.000000e+00
    outer loop
      vertex   -2.000000e+01 1.144076e+01 1.350000e+01
      vertex   -5.000000e+01 2.940764e+00 1.350000e+01
      vertex   -2.000000e+01 9.440763e+00 1.350000e+01
    endloop
  endfacet
  facet normal 0.000000e+00 0.000000e+00 1.000000e+00
    outer loop
      vertex   -2.000000e+01 9.440763e+00 1.350000e+01
      vertex   -5.000000e+01 2.940764e+00 1.350000e+01
      vertex   0.000000e+00 2.940764e+00 1.350000e+01
    endloop
  endfacet
  facet normal -0.000000e+00 0.000000e+00 1.000000e+00
    outer loop
      vertex   -2.000000e+01 9.440763e+00 1.350000e+01
      vertex   0.000000e+00 2.940764e+00 1.350000e+01
      vertex   0.000000e+00 9.440763e+00 1.350000e+01
    endloop
  endfacet
  facet normal -1.000000e+00 0.000000e+00 0.000000e+00
    outer loop
      vertex   -5.000000e+01 2.940764e+00 1.500000e+00
      vertex   -5.000000e+01 2.940764e+00 1.350000e+01
      vertex   -5.000000e+01 1.794076e+01 1.500000e+00
    endloop
  endfacet
  facet normal -1.000000e+00 0.000000e+00 0.000000e+00
    outer loop
      vertex   -5.000000e+01 1.794076e+01 1.500000e+00
      vertex   -5.000000e+01 2.940764e+00 1.350000e+01
      vertex   -5.000000e+01 1.794076e+01 1.350000e+01
    endloop
  endfacet
  facet normal 0.000000e+00 1.000000e+00 -0.000000e+00
    outer loop
      vertex   0.000000e+00 1.794076e+01 1.500000e+00
      vertex   -5.000000e+01 1.794076e+01 1.500000e+00
      vertex   0.000000e+00 1.794076e+01 1.350000e+01
    endloop
  endfacet
  facet normal 0.000000e+00 1.000000e+00 0.000000e+00
    outer loop
      vertex   0.000000e+00 1.794076e+01 1.350000e+01
      vertex   -5.000000e+01 1.794076e+01 1.500000e+00
      vertex   -5.000000e+01 1.794076e+01 1.350000e+01
    endloop
  endfacet
  facet normal 0.000000e+00 -1.000000e+00 0.000000e+00
    outer loop
      vertex   -5.000000e+01 2.940764e+00 1.500000e+00
      vertex   0.000000e+00 2.940764e+00 1.500000e+00
      vertex   -5.000000e+01 2.940764e+00 1.350000e+01
    endloop
  endfacet
  facet normal 0.000000e+00 -1.000000e+00 0.000000e+00
    outer loop
      vertex   -5.000000e+01 2.940764e+00 1.350000e+01
      vertex   0.000000e+00 2.940764e+00 1.500000e+00
      vertex   0.000000e+00 2.940764e+00 1.350000e+01
    endloop
  endfacet
endsolid
